<svg viewBox="0 0 800 256">
<path class="text" d="M401.252,191.907v-42.486h-41.495v42.486H340.92V94.189h18.837v38.521h41.495V94.189h18.837v97.718H401.252
  z M438.996,112.033c-5.664,0-10.198-3.966-10.198-9.631c0-5.807,4.533-9.913,10.198-9.913c5.52,0,10.054,4.107,10.054,9.913
  C449.05,108.067,444.516,112.033,438.996,112.033z M430.355,191.907v-68.403h16.996v68.403H430.355z M520.319,122.513l2.268,13.595
  l-12.463,0.85c1.272,2.692,1.839,5.807,1.839,8.922c0,14.73-12.602,23.51-27.333,23.51c-1.982,0-3.825-0.142-5.523-0.425
  c-1.698,1.273-2.832,2.548-2.832,3.683c0,2.265,2.123,2.832,12.747,4.389l8.78,0.851c14.023,1.984,22.8,6.373,22.8,16.855
  c0,14.725-16.143,22.941-35.972,22.941c-18.55,0-32.573-5.665-32.573-16.993c0-6.377,4.389-11.329,12.889-16.146
  c-2.69-2.126-3.967-4.672-3.967-7.363c0-3.825,2.974-7.507,8.642-10.907c-8.075-3.825-12.892-10.907-12.892-19.969
  c0-14.87,12.18-24.217,27.479-24.217c7.787,0,14.441,2.267,19.4,6.373L520.319,122.513z M466.787,198.847
  c0,5.1,6.094,8.78,18.979,8.78c12.18,0,19.117-4.107,19.117-9.206c0-3.679-2.974-5.803-11.468-7.081l-9.205-1.132
  c-4.675-0.567-6.8-0.992-10.199-1.697C469.056,192.051,466.787,195.309,466.787,198.847z M484.348,132.994
  c-7.504,0-11.896,5.806-11.896,13.312c0,7.081,4.534,12.465,11.896,12.465c7.507,0,12.041-5.524,12.041-12.89
  C496.389,138.516,491.572,132.994,484.348,132.994z M570.91,191.907v-44.751c0-5.948-2.549-10.057-8.781-10.057
  c-5.38,0-10.623,3.4-15.579,8.64v46.167h-16.993V92.348l16.993-2.691v42.487c5.668-5.241,12.747-10.056,21.81-10.056
  c12.747,0,19.545,7.789,19.545,20.537v49.282H570.91z M615.576,152.679v39.228h-16.997v-68.403h14.449l2.123,13.737
  c4.529-7.931,11.329-14.586,21.953-15.153l2.69,16.853C629.17,139.65,620.39,145.314,615.576,152.679z M655.646,112.033
  c-5.664,0-10.198-3.966-10.198-9.631c0-5.807,4.533-9.913,10.198-9.913c5.523,0,10.057,4.107,10.057,9.913
  C665.702,108.067,661.169,112.033,655.646,112.033z M647.008,191.907v-68.403h16.993v68.403H647.008z M697.988,193.182
  c-9.915,0-20.113-3.115-26.625-6.657l2.265-14.161c7.362,4.817,16.426,8.075,24.927,8.075c7.362,0,11.329-2.694,11.329-7.083
  c0-4.817-2.974-6.799-13.881-9.49c-16.568-4.25-23.509-9.064-23.509-21.527c0-11.755,9.348-20.111,25.21-20.111
  c8.922,0,17.135,1.7,23.934,4.815l-2.265,14.163c-6.799-3.825-14.87-6.232-21.669-6.232c-6.373,0-9.489,2.407-9.489,6.232
  c0,3.682,2.548,5.664,12.747,8.355c17.702,4.531,24.643,9.346,24.643,22.234C725.605,185.253,715.974,193.182,697.988,193.182z
   M792.016,161.032h-43.905c0.851,13.313,7.93,19.124,18.412,19.124c8.78,0,16.004-3.258,23.508-8.5l1.985,13.313
  c-7.366,5.098-16.288,8.355-27.334,8.355c-19.12,0-33.423-10.906-33.423-35.546c0-22.236,13.31-35.69,31.154-35.69
  c20.538,0,29.744,15.437,29.744,34.84C792.158,158.342,792.016,160.042,792.016,161.032z M761.993,133.841
  c-6.799,0-12.322,5.383-13.597,16.57h27.192C774.452,139.791,770.206,133.841,761.993,133.841z"></path>
<path class="globe" d="M152.002,6C73.128,6,11.344,106.263,5.5,190.951C30.241,233.86,89.926,250,152.002,250
  c62.069,0,121.757-16.14,146.498-59.049C292.653,106.263,230.868,6,152.002,6z"></path>
<path class="ground" d="M278.904,181.193c-12.509,30.439-56.756,47.477-126.9,49.201
  c-70.151-1.724-115.635-19.644-126.672-50.083c0-15.221,54.437-41.602,126.673-42.883
  C224.232,138.711,278.904,166.471,278.904,181.193z"></path>
<polygon class="small_bldg_right_side" points="236.197,91.052 206.27,83.699 178.305,90.243 178.305,184.176 205.833,193.391 236.123,180.35    "></polygon>
<polygon class="small_bldg_left_side" points="178.305,184.176 205.833,193.391 206.038,96.404 204.977,96.404 178.305,90.243    "></polygon>
<polygon class="small_bldg_top" points="236.197,91.052 206.27,98.402 178.305,90.243 206.27,83.699     "></polygon>
<polygon class="small_bldg_right_side" points="127.648,132.967 97.724,105.863 67.803,117.57 67.807,179.962 97.492,194.203 127.648,184.985    "></polygon>
<polygon class="small_bldg_left_side" points="67.807,179.962 97.492,194.203 97.492,121.761 96.435,106.368 67.803,101.013    "></polygon>
<polygon class="small_bldg_top" points="127.648,116.409 97.724,128.119 67.803,101.013 97.724,89.306     "></polygon>
<polygon class="large_bldg_right_side" points="187.594,62.493 151.998,53.136 116.403,62.493 107.708,198.914 151.654,214.668 196.123,197.79     "></polygon>
<polygon class="large_bldg_left_side" points="107.708,198.914 151.654,214.668 151.721,53.725 150.461,53.725 116.403,62.493    "></polygon>
<polygon class="large_bldg_top" points="187.594,62.493 151.998,71.855 116.403,62.493 151.998,53.136     "></polygon>
<path class="large_bldg_latice_2" d="M142.036,31.791c0-0.392,0.331-0.702,0.734-0.702l0,0c0.41,0,0.737,0.31,0.737,0.702l0.004,17.701
  c0.526,0.257,0.885,0.781,0.885,1.386v14.154c0,0.857-0.727,1.553-1.626,1.553l0,0c-0.899,0-1.62-0.696-1.62-1.553V50.878
  c0-0.608,0.36-1.134,0.889-1.39L142.036,31.791z"></path>
<path class="large_bldg_latice_2" d="M159.901,24.544c0-0.392,0.331-0.702,0.734-0.702l0,0c0.41,0,0.737,0.31,0.737,0.702l0.004,17.701
  c0.526,0.257,0.885,0.781,0.885,1.386v14.154c0,0.857-0.727,1.553-1.626,1.553l0,0c-0.899,0-1.62-0.696-1.62-1.553V43.63
  c0-0.608,0.36-1.134,0.889-1.39L159.901,24.544z"></path>
</svg>